<mxfile host="Electron" agent="Mozilla/5.0 (Windows NT 10.0; Win64; x64) AppleWebKit/537.36 (KHTML, like Gecko) draw.io/26.0.9 Chrome/128.0.6613.186 Electron/32.2.5 Safari/537.36" version="26.0.9">
  <diagram name="Page-1" id="ZSucT6EEV0dG0oSXc84Z">
    <mxGraphModel dx="1109" dy="717" grid="1" gridSize="10" guides="1" tooltips="1" connect="0" arrows="1" fold="1" page="1" pageScale="1" pageWidth="850" pageHeight="1100" math="0" shadow="0">
      <root>
        <mxCell id="0" />
        <mxCell id="1" parent="0" />
        <mxCell id="cF6hv4DR7A-sf1SHnZYf-1" value="&lt;font style=&quot;font-size: 30px;&quot;&gt;&lt;b&gt;&lt;font style=&quot;&quot;&gt;DATA FLOW DIAGRA&lt;/font&gt;M&lt;/b&gt;&lt;/font&gt;" style="text;html=1;align=center;verticalAlign=middle;whiteSpace=wrap;rounded=0;" vertex="1" parent="1">
          <mxGeometry y="10" width="400" height="30" as="geometry" />
        </mxCell>
        <mxCell id="cF6hv4DR7A-sf1SHnZYf-2" value="" style="rounded=0;whiteSpace=wrap;html=1;" vertex="1" parent="1">
          <mxGeometry x="40" y="80" width="160" height="480" as="geometry" />
        </mxCell>
        <mxCell id="cF6hv4DR7A-sf1SHnZYf-4" value="" style="rounded=1;whiteSpace=wrap;html=1;rotation=90;" vertex="1" parent="1">
          <mxGeometry x="60" y="240" width="480" height="160" as="geometry" />
        </mxCell>
        <mxCell id="cF6hv4DR7A-sf1SHnZYf-5" value="" style="rounded=1;whiteSpace=wrap;html=1;rotation=90;" vertex="1" parent="1">
          <mxGeometry x="240" y="240" width="480" height="160" as="geometry" />
        </mxCell>
        <mxCell id="cF6hv4DR7A-sf1SHnZYf-6" value="" style="rounded=1;whiteSpace=wrap;html=1;rotation=90;" vertex="1" parent="1">
          <mxGeometry x="420" y="240" width="480" height="160" as="geometry" />
        </mxCell>
        <mxCell id="cF6hv4DR7A-sf1SHnZYf-7" value="&lt;font style=&quot;font-size: 18px;&quot;&gt;&lt;b&gt;Sources&lt;/b&gt;&lt;/font&gt;" style="rounded=1;whiteSpace=wrap;html=1;" vertex="1" parent="1">
          <mxGeometry x="60" y="50" width="120" height="60" as="geometry" />
        </mxCell>
        <mxCell id="cF6hv4DR7A-sf1SHnZYf-16" style="edgeStyle=orthogonalEdgeStyle;rounded=0;orthogonalLoop=1;jettySize=auto;html=1;entryX=0;entryY=0.5;entryDx=0;entryDy=0;" edge="1" parent="1" source="cF6hv4DR7A-sf1SHnZYf-8" target="cF6hv4DR7A-sf1SHnZYf-13">
          <mxGeometry relative="1" as="geometry">
            <Array as="points">
              <mxPoint x="190" y="200" />
              <mxPoint x="190" y="150" />
            </Array>
          </mxGeometry>
        </mxCell>
        <mxCell id="cF6hv4DR7A-sf1SHnZYf-17" style="edgeStyle=orthogonalEdgeStyle;rounded=0;orthogonalLoop=1;jettySize=auto;html=1;" edge="1" parent="1" source="cF6hv4DR7A-sf1SHnZYf-8" target="cF6hv4DR7A-sf1SHnZYf-14">
          <mxGeometry relative="1" as="geometry" />
        </mxCell>
        <mxCell id="cF6hv4DR7A-sf1SHnZYf-18" style="edgeStyle=orthogonalEdgeStyle;rounded=0;orthogonalLoop=1;jettySize=auto;html=1;entryX=0;entryY=0.5;entryDx=0;entryDy=0;" edge="1" parent="1" source="cF6hv4DR7A-sf1SHnZYf-8" target="cF6hv4DR7A-sf1SHnZYf-15">
          <mxGeometry relative="1" as="geometry" />
        </mxCell>
        <mxCell id="cF6hv4DR7A-sf1SHnZYf-8" value="" style="image;html=1;image=img/lib/clip_art/general/Full_Folder_128x128.png" vertex="1" parent="1">
          <mxGeometry x="80" y="160" width="80" height="80" as="geometry" />
        </mxCell>
        <mxCell id="cF6hv4DR7A-sf1SHnZYf-22" style="edgeStyle=orthogonalEdgeStyle;rounded=0;orthogonalLoop=1;jettySize=auto;html=1;entryX=0;entryY=0.5;entryDx=0;entryDy=0;" edge="1" parent="1" source="cF6hv4DR7A-sf1SHnZYf-9" target="cF6hv4DR7A-sf1SHnZYf-19">
          <mxGeometry relative="1" as="geometry" />
        </mxCell>
        <mxCell id="cF6hv4DR7A-sf1SHnZYf-23" style="edgeStyle=orthogonalEdgeStyle;rounded=0;orthogonalLoop=1;jettySize=auto;html=1;entryX=0;entryY=0.5;entryDx=0;entryDy=0;" edge="1" parent="1" source="cF6hv4DR7A-sf1SHnZYf-9" target="cF6hv4DR7A-sf1SHnZYf-20">
          <mxGeometry relative="1" as="geometry" />
        </mxCell>
        <mxCell id="cF6hv4DR7A-sf1SHnZYf-24" style="edgeStyle=orthogonalEdgeStyle;rounded=0;orthogonalLoop=1;jettySize=auto;html=1;entryX=0;entryY=0.5;entryDx=0;entryDy=0;" edge="1" parent="1" source="cF6hv4DR7A-sf1SHnZYf-9" target="cF6hv4DR7A-sf1SHnZYf-21">
          <mxGeometry relative="1" as="geometry" />
        </mxCell>
        <mxCell id="cF6hv4DR7A-sf1SHnZYf-9" value="" style="image;html=1;image=img/lib/clip_art/general/Full_Folder_128x128.png" vertex="1" parent="1">
          <mxGeometry x="80" y="360" width="80" height="80" as="geometry" />
        </mxCell>
        <mxCell id="cF6hv4DR7A-sf1SHnZYf-10" value="&lt;b style=&quot;forced-color-adjust: none; color: rgb(0, 0, 0); font-family: Helvetica; font-size: 18px; font-style: normal; font-variant-ligatures: normal; font-variant-caps: normal; letter-spacing: normal; orphans: 2; text-align: center; text-indent: 0px; text-transform: none; widows: 2; word-spacing: 0px; -webkit-text-stroke-width: 0px; white-space: normal; background-color: rgb(251, 251, 251); text-decoration-thickness: initial; text-decoration-style: initial; text-decoration-color: initial;&quot;&gt;CRM&lt;/b&gt;" style="text;whiteSpace=wrap;html=1;" vertex="1" parent="1">
          <mxGeometry x="100" y="230" width="100" height="50" as="geometry" />
        </mxCell>
        <mxCell id="cF6hv4DR7A-sf1SHnZYf-11" value="&lt;b style=&quot;forced-color-adjust: none; color: rgb(0, 0, 0); font-family: Helvetica; font-size: 18px; font-style: normal; font-variant-ligatures: normal; font-variant-caps: normal; letter-spacing: normal; orphans: 2; text-align: center; text-indent: 0px; text-transform: none; widows: 2; word-spacing: 0px; -webkit-text-stroke-width: 0px; white-space: normal; background-color: rgb(251, 251, 251); text-decoration-thickness: initial; text-decoration-style: initial; text-decoration-color: initial;&quot;&gt;ERP&lt;/b&gt;" style="text;whiteSpace=wrap;html=1;" vertex="1" parent="1">
          <mxGeometry x="100" y="430" width="100" height="50" as="geometry" />
        </mxCell>
        <mxCell id="cF6hv4DR7A-sf1SHnZYf-12" value="&lt;font style=&quot;font-size: 18px;&quot;&gt;&lt;b&gt;Bronze&lt;/b&gt;&lt;/font&gt;&lt;div&gt;&lt;font style=&quot;font-size: 18px;&quot;&gt;&lt;b&gt;Layer&lt;/b&gt;&lt;/font&gt;&lt;/div&gt;" style="rounded=1;whiteSpace=wrap;html=1;fillColor=#ffe6cc;strokeColor=#d79b00;" vertex="1" parent="1">
          <mxGeometry x="240" y="50" width="120" height="60" as="geometry" />
        </mxCell>
        <mxCell id="cF6hv4DR7A-sf1SHnZYf-33" style="edgeStyle=orthogonalEdgeStyle;rounded=0;orthogonalLoop=1;jettySize=auto;html=1;" edge="1" parent="1" source="cF6hv4DR7A-sf1SHnZYf-13" target="cF6hv4DR7A-sf1SHnZYf-26">
          <mxGeometry relative="1" as="geometry" />
        </mxCell>
        <mxCell id="cF6hv4DR7A-sf1SHnZYf-13" value="&lt;b style=&quot;&quot;&gt;&lt;font style=&quot;font-size: 14px;&quot;&gt;crm_sales_details&lt;/font&gt;&lt;/b&gt;" style="rounded=1;whiteSpace=wrap;html=1;fillColor=#ffe6cc;strokeColor=#d79b00;" vertex="1" parent="1">
          <mxGeometry x="220" y="120" width="160" height="60" as="geometry" />
        </mxCell>
        <mxCell id="cF6hv4DR7A-sf1SHnZYf-34" value="" style="edgeStyle=orthogonalEdgeStyle;rounded=0;orthogonalLoop=1;jettySize=auto;html=1;" edge="1" parent="1" source="cF6hv4DR7A-sf1SHnZYf-14" target="cF6hv4DR7A-sf1SHnZYf-27">
          <mxGeometry relative="1" as="geometry" />
        </mxCell>
        <mxCell id="cF6hv4DR7A-sf1SHnZYf-14" value="&lt;b style=&quot;&quot;&gt;&lt;font style=&quot;font-size: 14px;&quot;&gt;crm_cust_info&lt;/font&gt;&lt;/b&gt;" style="rounded=1;whiteSpace=wrap;html=1;fillColor=#ffe6cc;strokeColor=#d79b00;" vertex="1" parent="1">
          <mxGeometry x="220" y="190" width="160" height="60" as="geometry" />
        </mxCell>
        <mxCell id="cF6hv4DR7A-sf1SHnZYf-35" value="" style="edgeStyle=orthogonalEdgeStyle;rounded=0;orthogonalLoop=1;jettySize=auto;html=1;" edge="1" parent="1" source="cF6hv4DR7A-sf1SHnZYf-15" target="cF6hv4DR7A-sf1SHnZYf-28">
          <mxGeometry relative="1" as="geometry" />
        </mxCell>
        <mxCell id="cF6hv4DR7A-sf1SHnZYf-15" value="&lt;b style=&quot;&quot;&gt;&lt;font style=&quot;font-size: 14px;&quot;&gt;crm_prd_info&lt;/font&gt;&lt;/b&gt;" style="rounded=1;whiteSpace=wrap;html=1;fillColor=#ffe6cc;strokeColor=#d79b00;" vertex="1" parent="1">
          <mxGeometry x="220" y="260" width="160" height="60" as="geometry" />
        </mxCell>
        <mxCell id="cF6hv4DR7A-sf1SHnZYf-36" value="" style="edgeStyle=orthogonalEdgeStyle;rounded=0;orthogonalLoop=1;jettySize=auto;html=1;" edge="1" parent="1" source="cF6hv4DR7A-sf1SHnZYf-19" target="cF6hv4DR7A-sf1SHnZYf-29">
          <mxGeometry relative="1" as="geometry" />
        </mxCell>
        <mxCell id="cF6hv4DR7A-sf1SHnZYf-19" value="&lt;b style=&quot;&quot;&gt;&lt;font style=&quot;font-size: 14px;&quot;&gt;erp_cust_az12&lt;/font&gt;&lt;/b&gt;" style="rounded=1;whiteSpace=wrap;html=1;fillColor=#ffe6cc;strokeColor=#d79b00;" vertex="1" parent="1">
          <mxGeometry x="220" y="340" width="160" height="60" as="geometry" />
        </mxCell>
        <mxCell id="cF6hv4DR7A-sf1SHnZYf-37" value="" style="edgeStyle=orthogonalEdgeStyle;rounded=0;orthogonalLoop=1;jettySize=auto;html=1;" edge="1" parent="1" source="cF6hv4DR7A-sf1SHnZYf-20" target="cF6hv4DR7A-sf1SHnZYf-30">
          <mxGeometry relative="1" as="geometry" />
        </mxCell>
        <mxCell id="cF6hv4DR7A-sf1SHnZYf-20" value="&lt;b style=&quot;&quot;&gt;&lt;font style=&quot;font-size: 14px;&quot;&gt;erp_loc_a101&lt;/font&gt;&lt;/b&gt;" style="rounded=1;whiteSpace=wrap;html=1;fillColor=#ffe6cc;strokeColor=#d79b00;" vertex="1" parent="1">
          <mxGeometry x="220" y="410" width="160" height="60" as="geometry" />
        </mxCell>
        <mxCell id="cF6hv4DR7A-sf1SHnZYf-38" value="" style="edgeStyle=orthogonalEdgeStyle;rounded=0;orthogonalLoop=1;jettySize=auto;html=1;" edge="1" parent="1" source="cF6hv4DR7A-sf1SHnZYf-21" target="cF6hv4DR7A-sf1SHnZYf-31">
          <mxGeometry relative="1" as="geometry" />
        </mxCell>
        <mxCell id="cF6hv4DR7A-sf1SHnZYf-21" value="&lt;b style=&quot;&quot;&gt;&lt;font style=&quot;font-size: 14px;&quot;&gt;erp_px_cat_g1v2&lt;/font&gt;&lt;/b&gt;" style="rounded=1;whiteSpace=wrap;html=1;fillColor=#ffe6cc;strokeColor=#d79b00;" vertex="1" parent="1">
          <mxGeometry x="220" y="480" width="160" height="60" as="geometry" />
        </mxCell>
        <mxCell id="cF6hv4DR7A-sf1SHnZYf-25" value="" style="rounded=1;whiteSpace=wrap;html=1;rotation=90;" vertex="1" parent="1">
          <mxGeometry x="240" y="240" width="480" height="160" as="geometry" />
        </mxCell>
        <mxCell id="cF6hv4DR7A-sf1SHnZYf-58" style="edgeStyle=orthogonalEdgeStyle;rounded=0;orthogonalLoop=1;jettySize=auto;html=1;jumpStyle=gap;" edge="1" parent="1" source="cF6hv4DR7A-sf1SHnZYf-26" target="cF6hv4DR7A-sf1SHnZYf-47">
          <mxGeometry relative="1" as="geometry" />
        </mxCell>
        <mxCell id="cF6hv4DR7A-sf1SHnZYf-26" value="&lt;b style=&quot;&quot;&gt;&lt;font style=&quot;font-size: 14px;&quot;&gt;crm_sales_details&lt;/font&gt;&lt;/b&gt;" style="rounded=1;whiteSpace=wrap;html=1;fillColor=#f5f5f5;strokeColor=#666666;fontColor=#333333;" vertex="1" parent="1">
          <mxGeometry x="400" y="120" width="160" height="60" as="geometry" />
        </mxCell>
        <mxCell id="cF6hv4DR7A-sf1SHnZYf-55" style="edgeStyle=orthogonalEdgeStyle;rounded=0;orthogonalLoop=1;jettySize=auto;html=1;jumpStyle=gap;" edge="1" parent="1" source="cF6hv4DR7A-sf1SHnZYf-27" target="cF6hv4DR7A-sf1SHnZYf-48">
          <mxGeometry relative="1" as="geometry" />
        </mxCell>
        <mxCell id="cF6hv4DR7A-sf1SHnZYf-27" value="&lt;b style=&quot;&quot;&gt;&lt;font style=&quot;font-size: 14px;&quot;&gt;crm_cust_info&lt;/font&gt;&lt;/b&gt;" style="rounded=1;whiteSpace=wrap;html=1;fillColor=#f5f5f5;strokeColor=#666666;fontColor=#333333;" vertex="1" parent="1">
          <mxGeometry x="400" y="190" width="160" height="60" as="geometry" />
        </mxCell>
        <mxCell id="cF6hv4DR7A-sf1SHnZYf-28" value="&lt;b style=&quot;&quot;&gt;&lt;font style=&quot;font-size: 14px;&quot;&gt;crm_prd_info&lt;/font&gt;&lt;/b&gt;" style="rounded=1;whiteSpace=wrap;html=1;fillColor=#f5f5f5;strokeColor=#666666;fontColor=#333333;" vertex="1" parent="1">
          <mxGeometry x="400" y="260" width="160" height="60" as="geometry" />
        </mxCell>
        <mxCell id="cF6hv4DR7A-sf1SHnZYf-29" value="&lt;b style=&quot;&quot;&gt;&lt;font style=&quot;font-size: 14px;&quot;&gt;erp_cust_az12&lt;/font&gt;&lt;/b&gt;" style="rounded=1;whiteSpace=wrap;html=1;fillColor=#f5f5f5;strokeColor=#666666;fontColor=#333333;" vertex="1" parent="1">
          <mxGeometry x="400" y="340" width="160" height="60" as="geometry" />
        </mxCell>
        <mxCell id="cF6hv4DR7A-sf1SHnZYf-30" value="&lt;b style=&quot;&quot;&gt;&lt;font style=&quot;font-size: 14px;&quot;&gt;erp_loc_a101&lt;/font&gt;&lt;/b&gt;" style="rounded=1;whiteSpace=wrap;html=1;fillColor=#f5f5f5;strokeColor=#666666;fontColor=#333333;" vertex="1" parent="1">
          <mxGeometry x="400" y="410" width="160" height="60" as="geometry" />
        </mxCell>
        <mxCell id="cF6hv4DR7A-sf1SHnZYf-60" style="edgeStyle=orthogonalEdgeStyle;rounded=0;orthogonalLoop=1;jettySize=auto;html=1;jumpStyle=gap;" edge="1" parent="1" source="cF6hv4DR7A-sf1SHnZYf-31" target="cF6hv4DR7A-sf1SHnZYf-49">
          <mxGeometry relative="1" as="geometry" />
        </mxCell>
        <mxCell id="cF6hv4DR7A-sf1SHnZYf-31" value="&lt;b style=&quot;&quot;&gt;&lt;font style=&quot;font-size: 14px;&quot;&gt;erp_px_cat_g1v2&lt;/font&gt;&lt;/b&gt;" style="rounded=1;whiteSpace=wrap;html=1;fillColor=#f5f5f5;strokeColor=#666666;fontColor=#333333;" vertex="1" parent="1">
          <mxGeometry x="400" y="480" width="160" height="60" as="geometry" />
        </mxCell>
        <mxCell id="cF6hv4DR7A-sf1SHnZYf-32" value="&lt;span style=&quot;font-size: 18px;&quot;&gt;&lt;b&gt;Silver&lt;/b&gt;&lt;/span&gt;&lt;br&gt;&lt;div&gt;&lt;font style=&quot;font-size: 18px;&quot;&gt;&lt;b&gt;Layer&lt;/b&gt;&lt;/font&gt;&lt;/div&gt;" style="rounded=1;whiteSpace=wrap;html=1;fillColor=#f5f5f5;strokeColor=#666666;fontColor=#333333;" vertex="1" parent="1">
          <mxGeometry x="420" y="50" width="120" height="60" as="geometry" />
        </mxCell>
        <mxCell id="cF6hv4DR7A-sf1SHnZYf-47" value="&lt;b style=&quot;&quot;&gt;&lt;font style=&quot;font-size: 14px;&quot;&gt;fact_sales&lt;/font&gt;&lt;/b&gt;" style="rounded=1;whiteSpace=wrap;html=1;fillColor=#fff2cc;strokeColor=#d6b656;" vertex="1" parent="1">
          <mxGeometry x="580" y="120" width="160" height="60" as="geometry" />
        </mxCell>
        <mxCell id="cF6hv4DR7A-sf1SHnZYf-48" value="&lt;b style=&quot;&quot;&gt;&lt;font style=&quot;font-size: 14px;&quot;&gt;dim_customers&lt;/font&gt;&lt;/b&gt;" style="rounded=1;whiteSpace=wrap;html=1;fillColor=#fff2cc;strokeColor=#d6b656;" vertex="1" parent="1">
          <mxGeometry x="580" y="280" width="160" height="60" as="geometry" />
        </mxCell>
        <mxCell id="cF6hv4DR7A-sf1SHnZYf-49" value="&lt;b style=&quot;&quot;&gt;&lt;font style=&quot;font-size: 14px;&quot;&gt;dim_products&lt;/font&gt;&lt;/b&gt;" style="rounded=1;whiteSpace=wrap;html=1;fillColor=#fff2cc;strokeColor=#d6b656;" vertex="1" parent="1">
          <mxGeometry x="580" y="480" width="160" height="60" as="geometry" />
        </mxCell>
        <mxCell id="cF6hv4DR7A-sf1SHnZYf-53" value="&lt;span style=&quot;font-size: 18px;&quot;&gt;&lt;b&gt;Gold&lt;/b&gt;&lt;/span&gt;&lt;br&gt;&lt;div&gt;&lt;font style=&quot;font-size: 18px;&quot;&gt;&lt;b&gt;Layer&lt;/b&gt;&lt;/font&gt;&lt;/div&gt;" style="rounded=1;whiteSpace=wrap;html=1;fillColor=#fff2cc;strokeColor=#d6b656;" vertex="1" parent="1">
          <mxGeometry x="600" y="50" width="120" height="60" as="geometry" />
        </mxCell>
        <mxCell id="cF6hv4DR7A-sf1SHnZYf-57" style="edgeStyle=orthogonalEdgeStyle;rounded=0;orthogonalLoop=1;jettySize=auto;html=1;jumpStyle=gap;" edge="1" parent="1" source="cF6hv4DR7A-sf1SHnZYf-29">
          <mxGeometry relative="1" as="geometry">
            <mxPoint x="660" y="340" as="targetPoint" />
            <Array as="points">
              <mxPoint x="660" y="370" />
              <mxPoint x="660" y="340" />
            </Array>
          </mxGeometry>
        </mxCell>
        <mxCell id="cF6hv4DR7A-sf1SHnZYf-59" style="edgeStyle=orthogonalEdgeStyle;rounded=0;orthogonalLoop=1;jettySize=auto;html=1;entryX=0.5;entryY=0.967;entryDx=0;entryDy=0;entryPerimeter=0;jumpStyle=gap;" edge="1" parent="1" source="cF6hv4DR7A-sf1SHnZYf-30" target="cF6hv4DR7A-sf1SHnZYf-48">
          <mxGeometry relative="1" as="geometry" />
        </mxCell>
        <mxCell id="cF6hv4DR7A-sf1SHnZYf-62" value="" style="endArrow=classic;html=1;rounded=0;entryX=0.469;entryY=0.033;entryDx=0;entryDy=0;entryPerimeter=0;exitX=1;exitY=0.833;exitDx=0;exitDy=0;exitPerimeter=0;jumpStyle=gap;" edge="1" parent="1" source="cF6hv4DR7A-sf1SHnZYf-28">
          <mxGeometry width="50" height="50" relative="1" as="geometry">
            <mxPoint x="560" y="320" as="sourcePoint" />
            <mxPoint x="659.04" y="480" as="targetPoint" />
            <Array as="points" />
          </mxGeometry>
        </mxCell>
      </root>
    </mxGraphModel>
  </diagram>
</mxfile>
